# xmcd CD database file
#
# Track frame offsets:
#	183
#	29058
#	56808
#	84258
#	106608
#	134133
#	161658
#	164658
#	193458
#	221508
#	249183
#	271683
#	295383
#
# Disc length: 4303 seconds
#
# Revision: 1
# Processed by: cddbd v1.5.2PL0 Copyright (c) Steve Scherf et al.
# Submitted via: CDex 1.51
#
DISCID=c410cd0d
DTITLE=The Jazz Workshop Series - Modern Jazz Classics Vol. 1
DYEAR=1900
DGENRE=Jazz
TTITLE0=BYE-YA (listening)
TTITLE1=CON ALMA (listening)
TTITLE2=ELEGY (listening)
TTITLE3=HALLUCINATIONS (listening)
TTITLE4=GOODBYE PORK PIE HAT (listening)
TTITLE5=WEBB CITY (listening)
TTITLE6=Tuning Note
TTITLE7=BYE-YA (play-along)
TTITLE8=CON ALMA (play-along)
TTITLE9=ELEGY (play-along)
TTITLE10=HALLUCINATIONS (play-along)
TTITLE11=GOODBYE PORK PIE HAT (play-along)
TTITLE12=WEBB CITY (play-along)
EXTD=
EXTT0=
EXTT1=
EXTT2=
EXTT3=
EXTT4=
EXTT5=
EXTT6=
EXTT7=
EXTT8=
EXTT9=
EXTT10=
EXTT11=
EXTT12=
PLAYORDER=
